<svg width="24" height="24" viewBox="0 0 24 24" fill="none" xmlns="http://www.w3.org/2000/svg">
    <path
        d="M10.8903 20.8775C9.22578 20.8775 8.11609 19.7678 7.56125 18.6581L5.34187 14.2194C4.78703 13.1097 5.34187 12 6.45156 12C7.13478 12 8.11954 12 8.7526 13.2516L9.78062 15.3291V7.56126C9.78062 6.45157 10.3355 5.89673 11.4452 5.89673C12.5548 5.89673 13.1097 6.45157 13.1097 7.56126V10.8903"
        fill="#FFC83E" />
    <path
        d="M13.1097 10.8903V7.56126C13.1097 6.45157 13.6645 5.89673 14.7742 5.89673C15.8839 5.89673 16.4387 6.45157 16.4387 7.56126V8.67095V10.8903"
        fill="#FFC83E" />
    <path
        d="M16.4387 10.8903V8.67095C16.4387 7.56126 16.9936 7.00642 18.1033 7.00642C19.213 7.00642 19.7678 7.56126 19.7678 8.67095V14.2194C19.7678 17.5484 17.5484 20.8775 14.2194 20.8775H10.8903"
        fill="#FFC83E" />
    <path fill-rule="evenodd" clip-rule="evenodd"
        d="M7.56125 18.6581C8.11609 19.7678 9.22578 20.8775 10.8903 20.8775H14.2194C17.5484 20.8775 19.7678 17.5484 19.7678 14.2194V8.67095C19.7678 7.56126 19.213 7.00642 18.1033 7.00642C16.9936 7.00642 16.4387 7.56126 16.4387 8.67095V7.56126C16.4387 6.45157 15.8839 5.89673 14.7742 5.89673C13.6645 5.89673 13.1097 6.45157 13.1097 7.56126C13.1097 6.45157 12.5548 5.89673 11.4452 5.89673C10.3355 5.89673 9.78062 6.45157 9.78062 7.56126V15.3291L8.7526 13.2516C8.11954 12 7.13478 12 6.45156 12C5.34187 12 4.78703 13.1097 5.34187 14.2194L7.56125 18.6581Z"
        fill="#FFC83E" />
    <path
        d="M13.1097 7.56126C13.1097 6.45157 12.5548 5.89673 11.4452 5.89673C10.3355 5.89673 9.78062 6.45157 9.78062 7.56126V15.3291L8.7526 13.2516C8.11954 12 7.13478 12 6.45156 12C5.34187 12 4.78703 13.1097 5.34187 14.2194L7.56125 18.6581C8.11609 19.7678 9.22578 20.8775 10.8903 20.8775H14.2194C17.5484 20.8775 19.7678 17.5484 19.7678 14.2194V8.67095C19.7678 7.56126 19.213 7.00642 18.1033 7.00642C16.9936 7.00642 16.4387 7.56126 16.4387 8.67095M13.1097 7.56126V10.8903M13.1097 7.56126C13.1097 6.45157 13.6645 5.89673 14.7742 5.89673C15.8839 5.89673 16.4387 6.45157 16.4387 7.56126V8.67095M16.4387 8.67095V10.8903"
        stroke="#D67D02" stroke-linecap="round" stroke-linejoin="round" />
    <path d="M5.34188 4.23218L4.23219 6.45155" stroke="#47A4FB" stroke-linecap="round" />
    <path d="M8.67095 3.1225L8.1161 5.34187" stroke="#47A4FB" stroke-linecap="round" />
    <path d="M12 3.1225L12.5548 5.34187" stroke="#47A4FB" stroke-linecap="round" />
</svg>